<svg width="22" height="23" viewBox="0 0 22 23" fill="none" xmlns="http://www.w3.org/2000/svg">
<path fill-rule="evenodd" clip-rule="evenodd" d="M5.7619 1.22668C3.14512 1.22668 1.0238 3.348 1.0238 5.96478V16.441C1.0238 19.0577 3.14512 21.1791 5.7619 21.1791H16.2381C18.8549 21.1791 20.9762 19.0577 20.9762 16.441V5.96478C20.9762 3.348 18.8549 1.22668 16.2381 1.22668H5.7619ZM0.0238037 5.96478C0.0238037 2.79572 2.59284 0.226685 5.7619 0.226685H16.2381C19.4072 0.226685 21.9762 2.79572 21.9762 5.96478V16.441C21.9762 19.61 19.4072 22.1791 16.2381 22.1791H5.7619C2.59284 22.1791 0.0238037 19.61 0.0238037 16.441V5.96478ZM11.5866 7.5068C10.8188 7.39293 10.0346 7.52409 9.34559 7.8816C8.65658 8.23912 8.09785 8.80478 7.74886 9.49815C7.39986 10.1915 7.27839 10.9773 7.40171 11.7437C7.52503 12.51 7.88687 13.218 8.43576 13.7669C8.98464 14.3158 9.69263 14.6776 10.459 14.801C11.2254 14.9243 12.0112 14.8028 12.7045 14.4538C13.3979 14.1048 13.9636 13.5461 14.3211 12.8571C14.6786 12.1681 14.8097 11.3839 14.6959 10.616C14.5797 9.83279 14.2148 9.10768 13.6549 8.54779C13.095 7.98791 12.3699 7.62294 11.5866 7.5068ZM8.88502 6.99398C9.76073 6.53959 10.7574 6.3729 11.7333 6.51761C12.7288 6.66523 13.6504 7.12909 14.362 7.84069C15.0736 8.55228 15.5374 9.47388 15.6851 10.4693C15.8298 11.4452 15.6631 12.4419 15.2087 13.3176C14.7543 14.1934 14.0354 14.9035 13.1541 15.347C12.2729 15.7906 11.2742 15.945 10.3001 15.7883C9.32609 15.6315 8.42627 15.1716 7.72865 14.474C7.03103 13.7764 6.57115 12.8766 6.41441 11.9025C6.25767 10.9285 6.41206 9.92981 6.85562 9.04856C7.29918 8.16732 8.00931 7.44837 8.88502 6.99398ZM16.7619 4.94097C16.4858 4.94097 16.2619 5.16483 16.2619 5.44097C16.2619 5.71711 16.4858 5.94097 16.7619 5.94097H16.7719C17.048 5.94097 17.2719 5.71711 17.2719 5.44097C17.2719 5.16483 17.048 4.94097 16.7719 4.94097H16.7619Z" fill="#DBFF00"/>
</svg>
