<svg width="20" height="20" viewBox="0 0 20 20" fill="none" xmlns="http://www.w3.org/2000/svg">
<path fill-rule="evenodd" clip-rule="evenodd" d="M1.5 9.20288C1.5 5.06075 4.85786 1.70288 9 1.70288C13.1421 1.70288 16.5 5.06075 16.5 9.20288C16.5 13.345 13.1421 16.7029 9 16.7029C4.85786 16.7029 1.5 13.345 1.5 9.20288ZM9 0.702881C4.30558 0.702881 0.5 4.50846 0.5 9.20288C0.5 13.8973 4.30558 17.7029 9 17.7029C11.2564 17.7029 13.3074 16.8237 14.8292 15.3892L18.9964 19.5564C19.1917 19.7517 19.5083 19.7517 19.7036 19.5564C19.8988 19.3612 19.8988 19.0446 19.7036 18.8493L15.5158 14.6616C16.7543 13.1849 17.5 11.281 17.5 9.20288C17.5 4.50846 13.6944 0.702881 9 0.702881Z" fill="black"/>
</svg>
