<svg width="24" height="25" viewBox="0 0 24 25" fill="none" xmlns="http://www.w3.org/2000/svg">
<path d="M23 3.20288C22.0424 3.87836 20.9821 4.39499 19.86 4.73288C19.2577 4.04039 18.4573 3.54957 17.567 3.32681C16.6767 3.10404 15.7395 3.16008 14.8821 3.48733C14.0247 3.81459 13.2884 4.39728 12.773 5.1566C12.2575 5.91591 11.9877 6.81522 12 7.73288V8.73288C10.2426 8.77845 8.50127 8.38869 6.93101 7.59833C5.36074 6.80796 4.01032 5.64152 3 4.20288C3 4.20288 -1 13.2029 8 17.2029C5.94053 18.6008 3.48716 19.3018 1 19.2029C10 24.2029 21 19.2029 21 7.70288C20.9991 7.42433 20.9723 7.14648 20.92 6.87288C21.9406 5.86637 22.6608 4.59559 23 3.20288V3.20288Z" stroke="#DBFF00" stroke-linecap="round" stroke-linejoin="round"/>
</svg>
